<svg width="100%" height="100%" viewBox="0 0 16 16" version="1.1" xmlns="http://www.w3.org/2000/svg" xmlns:xlink="http://www.w3.org/1999/xlink">
    <g style="fill-rule:evenodd;clip-rule:evenodd;stroke-linejoin:round;stroke-miterlimit:2;" fill="#424242">
         <path d="M9.371,1.801L8.64,2.531L8,2.155L3.438,4.789L8,7.423L9.003,6.851L9.003,8L8.5,8.289L8.5,13.557L13.062,10.923L13.062,10.428L14.062,10.428L14.062,11.5L8,15L1.938,11.5L1.938,4.5L8,1L9.371,1.801ZM2.938,5.655L2.938,10.923L7.5,13.557L7.5,8.289L2.938,5.655Z"/>
        <path d="M10.78436854,9L10.78436854,4.6L8.88863254,4.6L12.13824,1L15.38784746,4.6L13.49211146,4.6L13.49211146,9L10.78436854,9Z"/>
    </g>
</svg>
